PathFileType	4	(X/Y/Z)	D:\TRACE\v60_Jaco2_6-2-23\JustArmDRS_Motion2_3-platform.trc
DataRate	CameraRate	NumFrames	NumMarkers	Units	OrigDataRate	OrigDataStartFrame	OrigNumFrames
100.00	100.00	      36	5	mm	100.00	1743	      6969
Frame#	Time	Left_Front			Right_Front			Left_Aft			Right_Aft			Post			
		X1	Y1	Z1	X2	Y2	Z2	X3	Y3	Z3	X4	Y4	Z4	X5	Y5	Z5	

1743	17.420	-815.96045	26.65268	-634.23517	754.01166	27.78733	-639.31116	-724.26630	-4.56769	500.54901	717.94434	-6.07886	510.22641	-29.24977	1334.17273	-923.44366	
1744	17.430	-817.20984	25.76805	-634.61108	752.70306	26.32573	-640.03485	-725.39014	-3.61258	500.18851	717.14667	-4.97352	509.91272	-29.92011	1332.19531	-926.60370	
1745	17.440	-818.44318	24.15198	-634.94409	751.78021	25.14890	-640.37531	-726.49390	-2.61493	499.93820	715.87799	-4.00230	509.72845	-31.41500	1330.23059	-930.06384	
1746	17.450	-819.44513	22.75864	-635.28912	750.54144	23.54266	-640.65192	-727.42853	-1.72326	499.56589	714.98010	-3.00961	509.28366	-32.63821	1328.36511	-932.90057	
1747	17.460	-820.52618	21.23454	-635.74933	749.32196	22.23687	-641.03198	-728.75952	-0.70136	499.30228	713.41907	-1.96317	509.09955	-33.53690	1326.20007	-935.78552	
1748	17.470	-821.50977	19.85129	-635.86572	748.42017	20.85108	-641.31726	-729.76300	0.28713	499.01611	712.48328	-1.06313	508.70947	-34.65316	1324.32874	-938.37866	
1749	17.480	-822.84283	18.71865	-636.18298	747.09747	19.49253	-641.67499	-730.84320	1.18812	498.50119	711.38129	0.02401	508.34229	-36.05959	1322.31250	-940.35168	
1750	17.490	-823.83173	17.14796	-636.87958	746.30481	18.09595	-642.15198	-732.02002	2.23988	498.24075	710.50189	0.93256	508.11877	-36.94185	1320.15686	-942.78583	
1751	17.500	-824.83276	15.62385	-636.90967	745.03381	16.53776	-642.34705	-732.78296	3.05025	497.98553	709.46936	2.01830	507.71359	-38.23795	1318.09973	-945.17108	
1752	17.510	-825.90582	14.21733	-637.36694	743.92169	15.35141	-642.59338	-734.21069	4.24029	497.60641	708.16089	2.97591	507.49710	-39.62998	1316.23425	-948.35553	
1753	17.520	-827.15363	13.04366	-637.67163	742.96802	13.97019	-643.14972	-735.10840	5.03227	497.36966	707.36426	3.97088	507.07864	-40.44481	1314.04333	-951.37872	
1754	17.530	-828.19312	11.51033	-637.94922	741.98938	12.45591	-643.43103	-736.06555	6.17350	497.06915	706.05005	5.10462	506.88535	-41.41957	1311.98474	-954.89252	
1755	17.540	-829.11182	10.13053	-638.70642	740.99866	10.96862	-643.60364	-737.11011	7.01595	496.75348	704.91705	6.11361	506.34451	-42.18885	1309.89392	-958.43475	
1756	17.550	-830.04932	8.66422	-638.82391	739.86841	9.55796	-644.24866	-738.16089	8.09910	496.34277	704.21423	7.19376	506.13910	-43.86808	1307.75183	-962.12781	
1757	17.560	-831.10925	6.94890	-639.11957	738.88519	8.19187	-644.36664	-739.21417	9.02561	496.06137	703.08594	8.09442	505.77646	-44.49128	1305.47388	-965.91486	
1758	17.570	-832.33539	5.98105	-639.38318	737.83673	6.66296	-644.74097	-740.29645	10.19466	495.68033	702.20276	9.16033	505.53229	-45.73849	1303.35864	-969.50745	
1759	17.580	-833.14417	4.42836	-639.83527	736.91931	5.45349	-645.06512	-741.06702	10.95586	495.35095	701.17224	10.17635	505.24103	-46.73380	1301.33972	-972.75549	
1760	17.590	-834.09125	2.87710	-639.94519	736.02936	3.88915	-645.62079	-742.21057	12.22057	495.01611	700.21399	11.21871	504.87915	-47.92221	1299.32043	-976.08679	
1761	17.600	-835.04059	1.44444	-640.34570	735.08136	2.53980	-645.62292	-743.15942	12.96450	494.67828	699.04803	12.25447	504.57751	-48.38297	1297.03735	-979.04840	
1762	17.610	-835.82336	0.28186	-641.03503	734.02362	1.24875	-646.01538	-743.99799	14.09566	494.40955	697.92847	13.26865	504.18454	-49.16231	1295.05371	-982.05377	
1763	17.620	-836.93262	-1.26886	-640.95905	733.19965	-0.18297	-646.33307	-744.82104	14.80523	494.05457	697.34882	14.20530	503.83865	-50.28901	1292.80554	-984.76489	
1764	17.630	-837.85742	-2.67509	-641.37152	732.26337	-1.66278	-646.68646	-746.00403	16.03927	493.82742	696.51501	15.19841	503.61011	-51.26051	1290.90894	-987.12665	
1765	17.640	-838.82208	-4.00265	-641.47308	731.45929	-2.84227	-646.97400	-746.62518	16.76599	493.48904	695.32294	16.20160	503.30792	-52.30193	1288.63745	-989.55164	
1766	17.650	-839.23047	-5.50362	-641.76758	730.52130	-4.49745	-647.31622	-747.52332	17.80674	493.16956	694.87036	17.22751	502.80887	-53.38141	1286.64355	-992.06891	
1767	17.660	-840.37109	-6.79957	-642.20135	729.90076	-5.52270	-647.25787	-748.55884	18.73323	492.83734	694.07007	18.00515	502.43692	-54.06286	1284.64746	-994.66675	
1768	17.670	-841.14539	-8.20655	-642.46735	728.88141	-7.07581	-647.74707	-749.17371	19.58191	492.39642	693.08160	18.96980	502.12860	-55.15524	1282.68420	-997.46112	
1769	17.680	-841.85803	-9.76493	-642.69305	727.94769	-8.53997	-648.23456	-750.04504	20.53695	492.09100	692.48645	20.12532	501.83139	-55.89507	1280.51172	-1000.34406	
1770	17.690	-842.83563	-10.58447	-642.98718	727.37634	-9.47522	-648.36945	-750.92792	21.53497	491.69107	691.63342	21.01023	501.52145	-56.66123	1278.70813	-1003.15179	
1771	17.700	-843.57202	-12.21540	-643.32037	726.60974	-11.12322	-648.70868	-751.76874	22.40038	491.48920	690.81000	21.95689	501.08994	-57.23404	1276.30334	-1006.54980	
1772	17.710	-844.32172	-13.54023	-643.39551	725.81421	-12.41852	-648.99841	-752.22791	23.13381	491.11877	690.07458	22.74020	500.80310	-57.67660	1274.32935	-1009.69910	
1773	17.720	-844.39252	-15.48407	-643.89575	725.15448	-13.57527	-649.15369	-753.15533	24.20610	490.91162	689.54730	23.66924	500.44141	-58.31832	1272.25574	-1012.77960	
1774	17.730	-845.19037	-16.45473	-644.45935	724.49799	-15.00152	-649.60016	-753.76917	24.94814	490.52869	688.84973	24.68974	500.19406	-59.11924	1270.40332	-1015.69110	
1775	17.740	-845.55847	-17.78339	-644.46027	724.11829	-16.07292	-649.45703	-754.35529	25.97671	490.18140	688.16479	25.63151	499.80606	-59.67864	1268.23010	-1018.60358	
1776	17.750	-846.53528	-18.89246	-644.77631	723.21698	-17.49147	-649.98718	-754.88000	26.84784	489.79425	687.58698	26.50833	499.43408	-60.33071	1266.34863	-1021.46112	
1777	17.760	-847.22797	-19.99448	-644.97968	722.51282	-18.56344	-650.12366	-755.53583	27.62778	489.36682	687.16302	27.34519	499.14291	-61.21301	1264.41992	-1024.26782	
1778	17.770	-847.72534	-21.25201	-645.18335	722.14020	-20.08242	-650.54193	-756.01031	28.48676	488.97601	686.37592	28.17059	498.71124	-61.56935	1262.50354	-1026.92566	
